<mxfile host="Electron" agent="Mozilla/5.0 (Macintosh; Intel Mac OS X 10_15_7) AppleWebKit/537.36 (KHTML, like Gecko) draw.io/27.0.9 Chrome/134.0.6998.205 Electron/35.4.0 Safari/537.36" version="27.0.9">
  <diagram name="第1頁" id="42sLrqm_TxsRs1g0UzyI">
    <mxGraphModel dx="1426" dy="859" grid="1" gridSize="10" guides="1" tooltips="1" connect="1" arrows="1" fold="1" page="1" pageScale="1" pageWidth="1169" pageHeight="827" math="0" shadow="0">
      <root>
        <mxCell id="0" />
        <mxCell id="1" parent="0" />
        <mxCell id="miTaI1y8mHFx_gWerBgb-1" value="" style="rounded=0;whiteSpace=wrap;html=1;fillColor=#d5e8d4;strokeColor=none;fontStyle=1" parent="1" vertex="1">
          <mxGeometry x="39.65" y="560" width="1120.35" height="40" as="geometry" />
        </mxCell>
        <mxCell id="miTaI1y8mHFx_gWerBgb-2" value="&lt;span&gt;Version&lt;/span&gt;" style="rounded=0;whiteSpace=wrap;html=1;fillColor=#dae8fc;strokeColor=#000000;fontStyle=1" parent="1" vertex="1">
          <mxGeometry x="40.17210682492581" y="160" width="279.16913946587533" height="40" as="geometry" />
        </mxCell>
        <mxCell id="miTaI1y8mHFx_gWerBgb-3" value="&lt;span&gt;Type &lt;font style=&quot;color: rgb(255, 0, 0);&quot;&gt;= 2&lt;/font&gt;&lt;/span&gt;" style="rounded=0;whiteSpace=wrap;html=1;fillColor=#dae8fc;strokeColor=#000000;fontStyle=1" parent="1" vertex="1">
          <mxGeometry x="319.34124629080117" y="160" width="279.16913946587533" height="40" as="geometry" />
        </mxCell>
        <mxCell id="miTaI1y8mHFx_gWerBgb-4" value="Packet Length" style="rounded=0;whiteSpace=wrap;html=1;fillColor=#dae8fc;strokeColor=#000000;fontStyle=1" parent="1" vertex="1">
          <mxGeometry x="598.51" y="160" width="561.49" height="40" as="geometry" />
        </mxCell>
        <mxCell id="miTaI1y8mHFx_gWerBgb-5" value="Router ID" style="rounded=0;whiteSpace=wrap;html=1;fillColor=#dae8fc;strokeColor=#000000;fontStyle=1" parent="1" vertex="1">
          <mxGeometry x="40.17" y="200" width="1119.83" height="40" as="geometry" />
        </mxCell>
        <mxCell id="miTaI1y8mHFx_gWerBgb-6" value="Area ID" style="rounded=0;whiteSpace=wrap;html=1;fillColor=#dae8fc;strokeColor=#000000;fontStyle=1" parent="1" vertex="1">
          <mxGeometry x="40.17" y="240" width="1119.83" height="40" as="geometry" />
        </mxCell>
        <mxCell id="miTaI1y8mHFx_gWerBgb-7" value="&lt;span&gt;0&lt;/span&gt;" style="text;html=1;align=center;verticalAlign=middle;resizable=0;points=[];autosize=1;strokeColor=none;fillColor=none;fontStyle=1" parent="1" vertex="1">
          <mxGeometry x="25.17" y="130" width="30" height="30" as="geometry" />
        </mxCell>
        <mxCell id="miTaI1y8mHFx_gWerBgb-8" value="&lt;span&gt;7&lt;/span&gt;" style="text;html=1;align=center;verticalAlign=middle;resizable=0;points=[];autosize=1;strokeColor=none;fillColor=none;fontStyle=1" parent="1" vertex="1">
          <mxGeometry x="304.33913946587535" y="130" width="30" height="30" as="geometry" />
        </mxCell>
        <mxCell id="miTaI1y8mHFx_gWerBgb-9" value="&lt;span&gt;15&lt;/span&gt;" style="text;html=1;align=center;verticalAlign=middle;resizable=0;points=[];autosize=1;strokeColor=none;fillColor=none;fontStyle=1" parent="1" vertex="1">
          <mxGeometry x="577.904243323442" y="130" width="40" height="30" as="geometry" />
        </mxCell>
        <mxCell id="miTaI1y8mHFx_gWerBgb-10" value="&lt;span&gt;31&lt;/span&gt;" style="text;html=1;align=center;verticalAlign=middle;resizable=0;points=[];autosize=1;strokeColor=none;fillColor=none;fontStyle=1" parent="1" vertex="1">
          <mxGeometry x="1135.6277151335316" y="130" width="40" height="30" as="geometry" />
        </mxCell>
        <mxCell id="miTaI1y8mHFx_gWerBgb-11" value="Checksum" style="rounded=0;whiteSpace=wrap;html=1;fillColor=#dae8fc;strokeColor=#000000;fontStyle=1" parent="1" vertex="1">
          <mxGeometry x="40.17210682492581" y="280" width="558.3382789317507" height="40" as="geometry" />
        </mxCell>
        <mxCell id="miTaI1y8mHFx_gWerBgb-12" value="AuType" style="rounded=0;whiteSpace=wrap;html=1;fillColor=#dae8fc;strokeColor=#000000;fontStyle=1" parent="1" vertex="1">
          <mxGeometry x="598.51" y="280" width="561.49" height="40" as="geometry" />
        </mxCell>
        <mxCell id="miTaI1y8mHFx_gWerBgb-13" value="Authentication" style="rounded=0;whiteSpace=wrap;html=1;fillColor=#dae8fc;strokeColor=#000000;fontStyle=1" parent="1" vertex="1">
          <mxGeometry x="40.17" y="320" width="1119.83" height="40" as="geometry" />
        </mxCell>
        <mxCell id="miTaI1y8mHFx_gWerBgb-14" value="Authentication" style="rounded=0;whiteSpace=wrap;html=1;fillColor=#dae8fc;strokeColor=#000000;fontStyle=1" parent="1" vertex="1">
          <mxGeometry x="40.17" y="360" width="1119.83" height="40" as="geometry" />
        </mxCell>
        <mxCell id="miTaI1y8mHFx_gWerBgb-15" value="Network Mask" style="rounded=0;whiteSpace=wrap;html=1;fillColor=#d5e8d4;strokeColor=default;fontStyle=1" parent="1" vertex="1">
          <mxGeometry x="40.17" y="400" width="1119.83" height="40" as="geometry" />
        </mxCell>
        <mxCell id="miTaI1y8mHFx_gWerBgb-16" style="edgeStyle=orthogonalEdgeStyle;rounded=0;orthogonalLoop=1;jettySize=auto;html=1;exitX=0.5;exitY=1;exitDx=0;exitDy=0;" parent="1" source="miTaI1y8mHFx_gWerBgb-15" target="miTaI1y8mHFx_gWerBgb-15" edge="1">
          <mxGeometry relative="1" as="geometry" />
        </mxCell>
        <mxCell id="miTaI1y8mHFx_gWerBgb-17" value="&lt;font style=&quot;color: rgb(255, 0, 0);&quot;&gt;Interface MTU&lt;/font&gt;" style="rounded=0;whiteSpace=wrap;html=1;fillColor=#d5e8d4;strokeColor=default;fontStyle=1" parent="1" vertex="1">
          <mxGeometry x="40.17210682492581" y="440" width="558.3382789317507" height="40" as="geometry" />
        </mxCell>
        <mxCell id="miTaI1y8mHFx_gWerBgb-18" value="Options" style="rounded=0;whiteSpace=wrap;html=1;fillColor=#d5e8d4;strokeColor=default;fontStyle=1" parent="1" vertex="1">
          <mxGeometry x="598.51" y="440" width="281.49" height="40" as="geometry" />
        </mxCell>
        <mxCell id="miTaI1y8mHFx_gWerBgb-20" value="&lt;span&gt;23&lt;/span&gt;" style="text;html=1;align=center;verticalAlign=middle;resizable=0;points=[];autosize=1;strokeColor=none;fillColor=none;fontStyle=1" parent="1" vertex="1">
          <mxGeometry x="857.0733827893175" y="130" width="40" height="30" as="geometry" />
        </mxCell>
        <mxCell id="miTaI1y8mHFx_gWerBgb-21" value="&lt;font style=&quot;color: rgb(255, 0, 0);&quot;&gt;DD sequence number&lt;/font&gt;" style="rounded=0;whiteSpace=wrap;html=1;fillColor=#d5e8d4;strokeColor=default;fontStyle=1" parent="1" vertex="1">
          <mxGeometry x="40.17" y="480" width="1118.83" height="40" as="geometry" />
        </mxCell>
        <mxCell id="miTaI1y8mHFx_gWerBgb-22" value="&lt;font style=&quot;color: rgb(255, 0, 0);&quot;&gt;LSA Header&lt;/font&gt;" style="rounded=0;whiteSpace=wrap;html=1;fillColor=#d5e8d4;strokeColor=default;fontStyle=1" parent="1" vertex="1">
          <mxGeometry x="40.17" y="520" width="1118.83" height="40" as="geometry" />
        </mxCell>
        <mxCell id="miTaI1y8mHFx_gWerBgb-25" value="" style="pointerEvents=1;verticalLabelPosition=bottom;shadow=0;dashed=0;align=center;html=1;verticalAlign=top;shape=mxgraph.electrical.capacitors.capacitor_1;rotation=90;" parent="1" vertex="1">
          <mxGeometry x="4.054599406528212" y="575" width="72.23501483679524" height="10" as="geometry" />
        </mxCell>
        <mxCell id="miTaI1y8mHFx_gWerBgb-27" value="" style="pointerEvents=1;verticalLabelPosition=bottom;shadow=0;dashed=0;align=center;html=1;verticalAlign=top;shape=mxgraph.electrical.capacitors.capacitor_1;rotation=90;" parent="1" vertex="1">
          <mxGeometry x="1131.45" y="572.82" width="54.37" height="10" as="geometry" />
        </mxCell>
        <mxCell id="miTaI1y8mHFx_gWerBgb-28" value="&lt;b&gt;&lt;font style=&quot;font-size: 16px;&quot;&gt;......&lt;/font&gt;&lt;/b&gt;" style="text;html=1;align=center;verticalAlign=middle;resizable=0;points=[];autosize=1;strokeColor=none;fillColor=none;rotation=90;" parent="1" vertex="1">
          <mxGeometry x="575.084243323442" y="565" width="50" height="30" as="geometry" />
        </mxCell>
        <mxCell id="miTaI1y8mHFx_gWerBgb-29" value="LSA Header" style="rounded=0;whiteSpace=wrap;html=1;fillColor=#d5e8d4;strokeColor=default;fontStyle=1" parent="1" vertex="1">
          <mxGeometry x="39.65" y="600" width="1120.35" height="40" as="geometry" />
        </mxCell>
        <mxCell id="miTaI1y8mHFx_gWerBgb-52" value="" style="group" parent="1" vertex="1" connectable="0">
          <mxGeometry x="880.4581602373886" y="440" width="278.6456973293769" height="40" as="geometry" />
        </mxCell>
        <mxCell id="miTaI1y8mHFx_gWerBgb-30" value="0" style="rounded=0;whiteSpace=wrap;html=1;fillColor=#d5e8d4;strokeColor=default;fontStyle=1" parent="miTaI1y8mHFx_gWerBgb-52" vertex="1">
          <mxGeometry width="34.89614243323442" height="40" as="geometry" />
        </mxCell>
        <mxCell id="miTaI1y8mHFx_gWerBgb-45" value="0" style="rounded=0;whiteSpace=wrap;html=1;fillColor=#d5e8d4;strokeColor=default;fontStyle=1" parent="miTaI1y8mHFx_gWerBgb-52" vertex="1">
          <mxGeometry x="34.89614243323442" width="34.89614243323442" height="40" as="geometry" />
        </mxCell>
        <mxCell id="miTaI1y8mHFx_gWerBgb-46" value="0" style="rounded=0;whiteSpace=wrap;html=1;fillColor=#d5e8d4;strokeColor=default;fontStyle=1" parent="miTaI1y8mHFx_gWerBgb-52" vertex="1">
          <mxGeometry x="69.79228486646883" width="34.89614243323442" height="40" as="geometry" />
        </mxCell>
        <mxCell id="miTaI1y8mHFx_gWerBgb-47" value="0" style="rounded=0;whiteSpace=wrap;html=1;fillColor=#d5e8d4;strokeColor=default;fontStyle=1" parent="miTaI1y8mHFx_gWerBgb-52" vertex="1">
          <mxGeometry x="104.68842729970325" width="34.89614243323442" height="40" as="geometry" />
        </mxCell>
        <mxCell id="miTaI1y8mHFx_gWerBgb-48" value="0" style="rounded=0;whiteSpace=wrap;html=1;fillColor=#d5e8d4;strokeColor=default;fontStyle=1" parent="miTaI1y8mHFx_gWerBgb-52" vertex="1">
          <mxGeometry x="139.58456973293767" width="34.89614243323442" height="40" as="geometry" />
        </mxCell>
        <mxCell id="miTaI1y8mHFx_gWerBgb-49" value="&lt;font style=&quot;color: rgb(255, 0, 0);&quot;&gt;I&lt;/font&gt;" style="rounded=0;whiteSpace=wrap;html=1;fillColor=#d5e8d4;strokeColor=default;fontStyle=1" parent="miTaI1y8mHFx_gWerBgb-52" vertex="1">
          <mxGeometry x="174.48071216617208" width="34.89614243323442" height="40" as="geometry" />
        </mxCell>
        <mxCell id="miTaI1y8mHFx_gWerBgb-50" value="&lt;font style=&quot;color: rgb(255, 0, 0);&quot;&gt;M&lt;/font&gt;" style="rounded=0;whiteSpace=wrap;html=1;fillColor=#d5e8d4;strokeColor=default;fontStyle=1" parent="miTaI1y8mHFx_gWerBgb-52" vertex="1">
          <mxGeometry x="209.3768545994065" width="34.89614243323442" height="40" as="geometry" />
        </mxCell>
        <mxCell id="miTaI1y8mHFx_gWerBgb-51" value="&lt;font style=&quot;color: rgb(255, 0, 0);&quot;&gt;MS&lt;/font&gt;" style="rounded=0;whiteSpace=wrap;html=1;fillColor=#d5e8d4;strokeColor=default;fontStyle=1" parent="miTaI1y8mHFx_gWerBgb-52" vertex="1">
          <mxGeometry x="243.74955489614243" width="34.89614243323442" height="40" as="geometry" />
        </mxCell>
      </root>
    </mxGraphModel>
  </diagram>
</mxfile>
